# xmcd CD database file
#
# Track frame offsets:
#	182
#	14557
#	30482
#	43735
#	58020
#	71762
#	85025
#	98780
#	112485
#	127072
#	139592
#	155527
#	170607
#	182017
#	196420
#	208872
#	219542
#	234442
#	248132
#	258865
#	274387
#	287445
#
# Disc length: 4010 seconds
#
# Revision: 0
# Processed by: cddbd v1.4PL0 Copyright (c) Steve Scherf et al.
# Submitted via: CDex 1.51
#
DISCID=4e0fa816
DTITLE=Jelly Roll Morton - 1928 - 1929
DYEAR=1900
DGENRE=Jazz
TTITLE0=Red Hot Pepper
TTITLE1=Deep Creek
TTITLE2=Pep
TTITLE3=Seattle Hunch
TTITLE4=Frances (Fat Frances)
TTITLE5=Freakish
TTITLE6=Burnin' The Iceburg
TTITLE7=Courthouse Bump
TTITLE8=Pretty Lil
TTITLE9=Sweet Aneta Mine
TTITLE10=New Orleans Bump (Monrovia)
TTITLE11=Down My Way
TTITLE12=Try Me Out
TTITLE13=Tank Town Bump
TTITLE14=Sweet Peter
TTITLE15=Jersey Joe
TTITLE16=Mississippi Mildred
TTITLE17=Mint Julep
TTITLE18=You Oughta See My Gal
TTITLE19=Futuristic Blues
TTITLE20=Keep Your Business To Yourself
TTITLE21=She's Got What I Need
EXTD=
EXTT0=
EXTT1=
EXTT2=
EXTT3=
EXTT4=
EXTT5=
EXTT6=
EXTT7=
EXTT8=
EXTT9=
EXTT10=
EXTT11=
EXTT12=
EXTT13=
EXTT14=
EXTT15=
EXTT16=
EXTT17=
EXTT18=
EXTT19=
EXTT20=
EXTT21=
PLAYORDER=
